<svg width="540" height="360" viewBox="0 0 540 360" fill="none" xmlns="http://www.w3.org/2000/svg">
<path d="M2 2H450C498.601 2 538 41.3989 538 90V270C538 318.601 498.601 358 450 358H90C41.399 358 2 318.601 2 270V2Z" fill="#2F2F2F" stroke="#2F2F2F" stroke-width="4"/>
<rect x="137" y="71" width="40" height="40" rx="20" fill="#FFC33C"/>
<path d="M154.539 87.802C154.539 88.5647 154.759 89.2027 155.199 89.716C155.639 90.2147 156.27 90.464 157.091 90.464C157.912 90.464 158.543 90.2367 158.983 89.782C159.423 89.3127 159.643 88.66 159.643 87.824C159.643 86.988 159.416 86.3353 158.961 85.866C158.506 85.382 157.883 85.14 157.091 85.14C156.299 85.14 155.676 85.3967 155.221 85.91C154.766 86.4087 154.539 87.0393 154.539 87.802ZM157.333 96.448C158.242 96.448 158.902 96.0887 159.313 95.37C159.738 94.6513 159.951 93.4413 159.951 91.74C159.628 92.136 159.166 92.4513 158.565 92.686C157.978 92.9207 157.348 93.038 156.673 93.038C155.162 93.038 153.93 92.6053 152.977 91.74C152.038 90.8747 151.569 89.6207 151.569 87.978C151.569 86.3207 152.053 85.008 153.021 84.04C153.989 83.072 155.309 82.588 156.981 82.588C159.078 82.588 160.545 83.27 161.381 84.634C162.232 85.9833 162.657 88.0513 162.657 90.838C162.657 93.6247 162.261 95.6853 161.469 97.02C160.692 98.34 159.247 99 157.135 99C155.478 99 154.224 98.56 153.373 97.68C152.522 96.8 152.06 95.7 151.987 94.38H154.847C155.082 95.7587 155.91 96.448 157.333 96.448Z" fill="#231F20"/>
<rect x="193" y="71" width="40" height="40" rx="20" fill="#93D45B"/>
<path d="M211.935 99V86.218H209.603V83.38H215.103V99H211.935Z" fill="#231F20"/>
<rect x="249" y="71" width="40" height="40" rx="20" fill="#32D0AA"/>
<path d="M263.647 87.164C263.691 85.7267 264.197 84.612 265.165 83.82C266.148 83.0133 267.424 82.61 268.993 82.61C270.577 82.61 271.816 83.0133 272.711 83.82C273.606 84.612 274.053 85.6167 274.053 86.834C274.053 87.7727 273.811 88.5647 273.327 89.21C272.843 89.8407 272.3 90.2587 271.699 90.464V90.552C273.459 91.1533 274.339 92.4807 274.339 94.534C274.339 95.898 273.87 96.998 272.931 97.834C271.992 98.67 270.702 99.088 269.059 99.088C267.416 99.088 266.074 98.67 265.033 97.834C263.992 96.998 263.449 95.7733 263.405 94.16H266.397C266.426 94.8787 266.668 95.458 267.123 95.898C267.592 96.3233 268.216 96.536 268.993 96.536C269.77 96.536 270.357 96.3307 270.753 95.92C271.164 95.4947 271.369 94.8933 271.369 94.116C271.369 93.3387 271.09 92.7667 270.533 92.4C269.99 92.0187 269.125 91.828 267.937 91.828H267.299V89.298H267.937C270.02 89.298 271.061 88.6013 271.061 87.208C271.061 86.6067 270.87 86.13 270.489 85.778C270.108 85.426 269.565 85.25 268.861 85.25C268.157 85.25 267.629 85.448 267.277 85.844C266.925 86.24 266.72 86.68 266.661 87.164H263.647Z" fill="#231F20"/>
<rect x="305" y="71" width="40" height="40" rx="20" fill="#1EC7D3"/>
<path d="M327.776 93.764C327.776 92.9427 327.556 92.2753 327.116 91.762C326.676 91.234 326.038 90.97 325.202 90.97C324.381 90.97 323.713 91.2047 323.2 91.674C322.687 92.1433 322.43 92.8033 322.43 93.654C322.43 94.5047 322.687 95.1867 323.2 95.7C323.713 96.2133 324.373 96.47 325.18 96.47C326.001 96.47 326.639 96.2207 327.094 95.722C327.549 95.2233 327.776 94.5707 327.776 93.764ZM325.158 85.118C324.161 85.118 323.413 85.514 322.914 86.306C322.415 87.098 322.159 88.3667 322.144 90.112C322.525 89.5547 323.053 89.1293 323.728 88.836C324.403 88.5427 325.107 88.396 325.84 88.396C327.307 88.396 328.495 88.858 329.404 89.782C330.313 90.706 330.768 91.982 330.768 93.61C330.768 95.238 330.299 96.5433 329.36 97.526C328.421 98.5087 327.116 99 325.444 99C323.273 99 321.726 98.318 320.802 96.954C319.893 95.59 319.438 93.5147 319.438 90.728C319.438 85.2867 321.359 82.566 325.202 82.566C326.742 82.566 327.937 82.984 328.788 83.82C329.639 84.6413 330.145 85.668 330.306 86.9H327.446C327.167 85.712 326.405 85.118 325.158 85.118Z" fill="#231F20"/>
<rect x="361" y="71" width="40" height="40" rx="20" fill="#A881FB"/>
<path d="M383.776 93.764C383.776 92.9427 383.556 92.2753 383.116 91.762C382.676 91.234 382.038 90.97 381.202 90.97C380.381 90.97 379.713 91.2047 379.2 91.674C378.687 92.1433 378.43 92.8033 378.43 93.654C378.43 94.5047 378.687 95.1867 379.2 95.7C379.713 96.2133 380.373 96.47 381.18 96.47C382.001 96.47 382.639 96.2207 383.094 95.722C383.549 95.2233 383.776 94.5707 383.776 93.764ZM381.158 85.118C380.161 85.118 379.413 85.514 378.914 86.306C378.415 87.098 378.159 88.3667 378.144 90.112C378.525 89.5547 379.053 89.1293 379.728 88.836C380.403 88.5427 381.107 88.396 381.84 88.396C383.307 88.396 384.495 88.858 385.404 89.782C386.313 90.706 386.768 91.982 386.768 93.61C386.768 95.238 386.299 96.5433 385.36 97.526C384.421 98.5087 383.116 99 381.444 99C379.273 99 377.726 98.318 376.802 96.954C375.893 95.59 375.438 93.5147 375.438 90.728C375.438 85.2867 377.359 82.566 381.202 82.566C382.742 82.566 383.937 82.984 384.788 83.82C385.639 84.6413 386.145 85.668 386.306 86.9H383.446C383.167 85.712 382.405 85.118 381.158 85.118Z" fill="#231F20"/>
<rect x="417" y="71" width="40" height="40" rx="20" fill="#D750B2"/>
<path d="M431.696 98.78V96.514C432.077 96.1767 432.664 95.6707 433.456 94.996C434.248 94.3067 434.842 93.786 435.238 93.434C435.634 93.082 436.118 92.62 436.69 92.048C437.276 91.4613 437.709 90.97 437.988 90.574C438.706 89.5473 439.066 88.638 439.066 87.846C439.066 86.2913 438.347 85.514 436.91 85.514C436.206 85.514 435.656 85.7487 435.26 86.218C434.864 86.6873 434.658 87.3327 434.644 88.154H431.652C431.666 86.438 432.165 85.1327 433.148 84.238C434.145 83.3433 435.443 82.896 437.042 82.896C438.64 82.896 439.894 83.3507 440.804 84.26C441.713 85.1693 442.168 86.3133 442.168 87.692C442.168 88.7187 441.904 89.672 441.376 90.552C441.112 91.0213 440.855 91.4393 440.606 91.806C440.356 92.158 439.997 92.5687 439.528 93.038C439.073 93.5073 438.714 93.874 438.45 94.138C438.186 94.402 437.782 94.776 437.24 95.26C436.712 95.7293 436.345 96.0593 436.14 96.25H442.542V98.78H431.696Z" fill="#231F20"/>
<path d="M109.136 188L107.606 183.546H98.3577L96.8277 188H91.7617L100.16 164.2H105.838L114.202 188H109.136ZM99.6157 179.874H106.382L102.982 169.98L99.6157 179.874Z" fill="white"/>
<path d="M94.4934 255.268H104.115C106.541 255.268 108.445 255.857 109.827 257.036C111.233 258.215 111.935 259.711 111.935 261.524C111.935 264.176 110.394 265.955 107.311 266.862C108.875 267.089 110.122 267.769 111.051 268.902C112.003 270.013 112.479 271.305 112.479 272.778C112.479 274.637 111.777 276.144 110.371 277.3C108.966 278.433 107.062 279 104.659 279H94.4934V255.268ZM99.2874 258.94V265.094H103.605C104.671 265.094 105.509 264.833 106.121 264.312C106.756 263.768 107.073 263.009 107.073 262.034C107.073 261.059 106.756 260.3 106.121 259.756C105.509 259.212 104.671 258.94 103.605 258.94H99.2874ZM99.2874 275.328H104.115C105.181 275.328 106.031 275.045 106.665 274.478C107.323 273.889 107.651 273.084 107.651 272.064C107.651 271.044 107.323 270.239 106.665 269.65C106.008 269.061 105.147 268.766 104.081 268.766H99.2874V275.328Z" fill="white"/>
<rect x="135" y="153" width="156" height="44" rx="22" fill="#231F20"/>
<rect x="137" y="155" width="40" height="40" rx="20" fill="#231F20"/>
<path d="M154.539 171.802C154.539 172.565 154.759 173.203 155.199 173.716C155.639 174.215 156.27 174.464 157.091 174.464C157.912 174.464 158.543 174.237 158.983 173.782C159.423 173.313 159.643 172.66 159.643 171.824C159.643 170.988 159.416 170.335 158.961 169.866C158.506 169.382 157.883 169.14 157.091 169.14C156.299 169.14 155.676 169.397 155.221 169.91C154.766 170.409 154.539 171.039 154.539 171.802ZM157.333 180.448C158.242 180.448 158.902 180.089 159.313 179.37C159.738 178.651 159.951 177.441 159.951 175.74C159.628 176.136 159.166 176.451 158.565 176.686C157.978 176.921 157.348 177.038 156.673 177.038C155.162 177.038 153.93 176.605 152.977 175.74C152.038 174.875 151.569 173.621 151.569 171.978C151.569 170.321 152.053 169.008 153.021 168.04C153.989 167.072 155.309 166.588 156.981 166.588C159.078 166.588 160.545 167.27 161.381 168.634C162.232 169.983 162.657 172.051 162.657 174.838C162.657 177.625 162.261 179.685 161.469 181.02C160.692 182.34 159.247 183 157.135 183C155.478 183 154.224 182.56 153.373 181.68C152.522 180.8 152.06 179.7 151.987 178.38H154.847C155.082 179.759 155.91 180.448 157.333 180.448Z" fill="white"/>
<rect x="193" y="155" width="40" height="40" rx="20" fill="#231F20"/>
<path d="M211.935 183V170.218H209.603V167.38H215.103V183H211.935Z" fill="white"/>
<rect x="249" y="155" width="40" height="40" rx="20" fill="#231F20"/>
<path d="M263.647 171.164C263.691 169.727 264.197 168.612 265.165 167.82C266.148 167.013 267.424 166.61 268.993 166.61C270.577 166.61 271.816 167.013 272.711 167.82C273.606 168.612 274.053 169.617 274.053 170.834C274.053 171.773 273.811 172.565 273.327 173.21C272.843 173.841 272.3 174.259 271.699 174.464V174.552C273.459 175.153 274.339 176.481 274.339 178.534C274.339 179.898 273.87 180.998 272.931 181.834C271.992 182.67 270.702 183.088 269.059 183.088C267.416 183.088 266.074 182.67 265.033 181.834C263.992 180.998 263.449 179.773 263.405 178.16H266.397C266.426 178.879 266.668 179.458 267.123 179.898C267.592 180.323 268.216 180.536 268.993 180.536C269.77 180.536 270.357 180.331 270.753 179.92C271.164 179.495 271.369 178.893 271.369 178.116C271.369 177.339 271.09 176.767 270.533 176.4C269.99 176.019 269.125 175.828 267.937 175.828H267.299V173.298H267.937C270.02 173.298 271.061 172.601 271.061 171.208C271.061 170.607 270.87 170.13 270.489 169.778C270.108 169.426 269.565 169.25 268.861 169.25C268.157 169.25 267.629 169.448 267.277 169.844C266.925 170.24 266.72 170.68 266.661 171.164H263.647Z" fill="white"/>
<rect x="135" y="153" width="156" height="44" rx="22" stroke="url(#paint0_linear_4270_411)" stroke-width="4"/>
<rect x="305" y="155" width="40" height="40" rx="20" fill="#231F20"/>
<path d="M322.539 171.802C322.539 172.565 322.759 173.203 323.199 173.716C323.639 174.215 324.27 174.464 325.091 174.464C325.912 174.464 326.543 174.237 326.983 173.782C327.423 173.313 327.643 172.66 327.643 171.824C327.643 170.988 327.416 170.335 326.961 169.866C326.506 169.382 325.883 169.14 325.091 169.14C324.299 169.14 323.676 169.397 323.221 169.91C322.766 170.409 322.539 171.039 322.539 171.802ZM325.333 180.448C326.242 180.448 326.902 180.089 327.313 179.37C327.738 178.651 327.951 177.441 327.951 175.74C327.628 176.136 327.166 176.451 326.565 176.686C325.978 176.921 325.348 177.038 324.673 177.038C323.162 177.038 321.93 176.605 320.977 175.74C320.038 174.875 319.569 173.621 319.569 171.978C319.569 170.321 320.053 169.008 321.021 168.04C321.989 167.072 323.309 166.588 324.981 166.588C327.078 166.588 328.545 167.27 329.381 168.634C330.232 169.983 330.657 172.051 330.657 174.838C330.657 177.625 330.261 179.685 329.469 181.02C328.692 182.34 327.247 183 325.135 183C323.478 183 322.224 182.56 321.373 181.68C320.522 180.8 320.06 179.7 319.987 178.38H322.847C323.082 179.759 323.91 180.448 325.333 180.448Z" fill="#9E9E9E"/>
<rect x="361" y="155" width="40" height="40" rx="20" fill="#231F20"/>
<path d="M383.776 177.764C383.776 176.943 383.556 176.275 383.116 175.762C382.676 175.234 382.038 174.97 381.202 174.97C380.381 174.97 379.713 175.205 379.2 175.674C378.687 176.143 378.43 176.803 378.43 177.654C378.43 178.505 378.687 179.187 379.2 179.7C379.713 180.213 380.373 180.47 381.18 180.47C382.001 180.47 382.639 180.221 383.094 179.722C383.549 179.223 383.776 178.571 383.776 177.764ZM381.158 169.118C380.161 169.118 379.413 169.514 378.914 170.306C378.415 171.098 378.159 172.367 378.144 174.112C378.525 173.555 379.053 173.129 379.728 172.836C380.403 172.543 381.107 172.396 381.84 172.396C383.307 172.396 384.495 172.858 385.404 173.782C386.313 174.706 386.768 175.982 386.768 177.61C386.768 179.238 386.299 180.543 385.36 181.526C384.421 182.509 383.116 183 381.444 183C379.273 183 377.726 182.318 376.802 180.954C375.893 179.59 375.438 177.515 375.438 174.728C375.438 169.287 377.359 166.566 381.202 166.566C382.742 166.566 383.937 166.984 384.788 167.82C385.639 168.641 386.145 169.668 386.306 170.9H383.446C383.167 169.712 382.405 169.118 381.158 169.118Z" fill="#9E9E9E"/>
<rect x="417" y="155" width="40" height="40" rx="20" fill="#231F20"/>
<path d="M431.696 182.78V180.514C432.077 180.177 432.664 179.671 433.456 178.996C434.248 178.307 434.842 177.786 435.238 177.434C435.634 177.082 436.118 176.62 436.69 176.048C437.276 175.461 437.709 174.97 437.988 174.574C438.706 173.547 439.066 172.638 439.066 171.846C439.066 170.291 438.347 169.514 436.91 169.514C436.206 169.514 435.656 169.749 435.26 170.218C434.864 170.687 434.658 171.333 434.644 172.154H431.652C431.666 170.438 432.165 169.133 433.148 168.238C434.145 167.343 435.443 166.896 437.042 166.896C438.64 166.896 439.894 167.351 440.804 168.26C441.713 169.169 442.168 170.313 442.168 171.692C442.168 172.719 441.904 173.672 441.376 174.552C441.112 175.021 440.855 175.439 440.606 175.806C440.356 176.158 439.997 176.569 439.528 177.038C439.073 177.507 438.714 177.874 438.45 178.138C438.186 178.402 437.782 178.776 437.24 179.26C436.712 179.729 436.345 180.059 436.14 180.25H442.542V182.78H431.696Z" fill="#9E9E9E"/>
<rect x="137" y="246" width="40" height="40" rx="20" fill="#231F20"/>
<path d="M151.055 265.992C151.055 260.668 153.027 258.006 156.973 258.006C160.933 258.006 162.913 260.668 162.913 265.992C162.913 271.301 160.933 273.956 156.973 273.956C153.027 273.956 151.055 271.301 151.055 265.992ZM158.293 261.152C157.926 260.961 157.493 260.866 156.995 260.866C156.496 260.866 156.063 260.961 155.697 261.152C155.33 261.343 155.044 261.585 154.839 261.878C154.648 262.171 154.494 262.56 154.377 263.044C154.259 263.513 154.179 263.968 154.135 264.408C154.105 264.848 154.091 265.369 154.091 265.97C154.091 266.571 154.105 267.092 154.135 267.532C154.179 267.972 154.259 268.434 154.377 268.918C154.494 269.387 154.648 269.776 154.839 270.084C155.044 270.377 155.33 270.619 155.697 270.81C156.063 271.001 156.496 271.096 156.995 271.096C157.493 271.096 157.926 271.001 158.293 270.81C158.659 270.619 158.938 270.377 159.129 270.084C159.334 269.776 159.495 269.387 159.613 268.918C159.73 268.434 159.803 267.972 159.833 267.532C159.877 267.092 159.899 266.571 159.899 265.97C159.899 265.369 159.877 264.848 159.833 264.408C159.803 263.968 159.73 263.513 159.613 263.044C159.495 262.56 159.334 262.171 159.129 261.878C158.938 261.585 158.659 261.343 158.293 261.152Z" fill="#9E9E9E"/>
<rect x="193" y="246" width="40" height="40" rx="20" fill="#231F20"/>
<path d="M211.935 274V261.218H209.603V258.38H215.103V274H211.935Z" fill="#9E9E9E"/>
<rect x="249" y="246" width="40" height="40" rx="20" fill="#231F20"/>
<path d="M263.647 262.164C263.691 260.727 264.197 259.612 265.165 258.82C266.148 258.013 267.424 257.61 268.993 257.61C270.577 257.61 271.816 258.013 272.711 258.82C273.606 259.612 274.053 260.617 274.053 261.834C274.053 262.773 273.811 263.565 273.327 264.21C272.843 264.841 272.3 265.259 271.699 265.464V265.552C273.459 266.153 274.339 267.481 274.339 269.534C274.339 270.898 273.87 271.998 272.931 272.834C271.992 273.67 270.702 274.088 269.059 274.088C267.416 274.088 266.074 273.67 265.033 272.834C263.992 271.998 263.449 270.773 263.405 269.16H266.397C266.426 269.879 266.668 270.458 267.123 270.898C267.592 271.323 268.216 271.536 268.993 271.536C269.77 271.536 270.357 271.331 270.753 270.92C271.164 270.495 271.369 269.893 271.369 269.116C271.369 268.339 271.09 267.767 270.533 267.4C269.99 267.019 269.125 266.828 267.937 266.828H267.299V264.298H267.937C270.02 264.298 271.061 263.601 271.061 262.208C271.061 261.607 270.87 261.13 270.489 260.778C270.108 260.426 269.565 260.25 268.861 260.25C268.157 260.25 267.629 260.448 267.277 260.844C266.925 261.24 266.72 261.68 266.661 262.164H263.647Z" fill="#9E9E9E"/>
<rect x="305" y="246" width="40" height="40" rx="20" fill="#231F20"/>
<path d="M327.776 268.764C327.776 267.943 327.556 267.275 327.116 266.762C326.676 266.234 326.038 265.97 325.202 265.97C324.381 265.97 323.713 266.205 323.2 266.674C322.687 267.143 322.43 267.803 322.43 268.654C322.43 269.505 322.687 270.187 323.2 270.7C323.713 271.213 324.373 271.47 325.18 271.47C326.001 271.47 326.639 271.221 327.094 270.722C327.549 270.223 327.776 269.571 327.776 268.764ZM325.158 260.118C324.161 260.118 323.413 260.514 322.914 261.306C322.415 262.098 322.159 263.367 322.144 265.112C322.525 264.555 323.053 264.129 323.728 263.836C324.403 263.543 325.107 263.396 325.84 263.396C327.307 263.396 328.495 263.858 329.404 264.782C330.313 265.706 330.768 266.982 330.768 268.61C330.768 270.238 330.299 271.543 329.36 272.526C328.421 273.509 327.116 274 325.444 274C323.273 274 321.726 273.318 320.802 271.954C319.893 270.59 319.438 268.515 319.438 265.728C319.438 260.287 321.359 257.566 325.202 257.566C326.742 257.566 327.937 257.984 328.788 258.82C329.639 259.641 330.145 260.668 330.306 261.9H327.446C327.167 260.712 326.405 260.118 325.158 260.118Z" fill="#9E9E9E"/>
<rect x="361" y="246" width="40" height="40" rx="20" fill="#231F20"/>
<path d="M383.776 268.764C383.776 267.943 383.556 267.275 383.116 266.762C382.676 266.234 382.038 265.97 381.202 265.97C380.381 265.97 379.713 266.205 379.2 266.674C378.687 267.143 378.43 267.803 378.43 268.654C378.43 269.505 378.687 270.187 379.2 270.7C379.713 271.213 380.373 271.47 381.18 271.47C382.001 271.47 382.639 271.221 383.094 270.722C383.549 270.223 383.776 269.571 383.776 268.764ZM381.158 260.118C380.161 260.118 379.413 260.514 378.914 261.306C378.415 262.098 378.159 263.367 378.144 265.112C378.525 264.555 379.053 264.129 379.728 263.836C380.403 263.543 381.107 263.396 381.84 263.396C383.307 263.396 384.495 263.858 385.404 264.782C386.313 265.706 386.768 266.982 386.768 268.61C386.768 270.238 386.299 271.543 385.36 272.526C384.421 273.509 383.116 274 381.444 274C379.273 274 377.726 273.318 376.802 271.954C375.893 270.59 375.438 268.515 375.438 265.728C375.438 260.287 377.359 257.566 381.202 257.566C382.742 257.566 383.937 257.984 384.788 258.82C385.639 259.641 386.145 260.668 386.306 261.9H383.446C383.167 260.712 382.405 260.118 381.158 260.118Z" fill="#9E9E9E"/>
<rect x="417" y="246" width="40" height="40" rx="20" fill="#231F20"/>
<path d="M431.696 273.78V271.514C432.077 271.177 432.664 270.671 433.456 269.996C434.248 269.307 434.842 268.786 435.238 268.434C435.634 268.082 436.118 267.62 436.69 267.048C437.276 266.461 437.709 265.97 437.988 265.574C438.706 264.547 439.066 263.638 439.066 262.846C439.066 261.291 438.347 260.514 436.91 260.514C436.206 260.514 435.656 260.749 435.26 261.218C434.864 261.687 434.658 262.333 434.644 263.154H431.652C431.666 261.438 432.165 260.133 433.148 259.238C434.145 258.343 435.443 257.896 437.042 257.896C438.64 257.896 439.894 258.351 440.804 259.26C441.713 260.169 442.168 261.313 442.168 262.692C442.168 263.719 441.904 264.672 441.376 265.552C441.112 266.021 440.855 266.439 440.606 266.806C440.356 267.158 439.997 267.569 439.528 268.038C439.073 268.507 438.714 268.874 438.45 269.138C438.186 269.402 437.782 269.776 437.24 270.26C436.712 270.729 436.345 271.059 436.14 271.25H442.542V273.78H431.696Z" fill="#9E9E9E"/>
<g clip-path="url(#clip0_4270_411)">
<path d="M156 145.667C152.318 145.667 149.333 142.682 149.333 139C149.333 135.318 152.318 132.333 156 132.333C159.682 132.333 162.667 135.318 162.667 139C162.667 142.682 159.682 145.667 156 145.667ZM155.335 141.667L160.049 136.953L159.106 136.01L155.335 139.781L153.449 137.895L152.507 138.838L155.335 141.667Z" fill="#30E8BF"/>
</g>
<g clip-path="url(#clip1_4270_411)">
<path d="M213 145.667C209.318 145.667 206.333 142.682 206.333 139C206.333 135.318 209.318 132.333 213 132.333C216.682 132.333 219.667 135.318 219.667 139C219.667 142.682 216.682 145.667 213 145.667ZM212.335 141.667L217.049 136.953L216.106 136.01L212.335 139.781L210.449 137.895L209.507 138.838L212.335 141.667Z" fill="#30E8BF"/>
</g>
<g clip-path="url(#clip2_4270_411)">
<path d="M270 145.667C266.318 145.667 263.333 142.682 263.333 139C263.333 135.318 266.318 132.333 270 132.333C273.682 132.333 276.667 135.318 276.667 139C276.667 142.682 273.682 145.667 270 145.667ZM269.335 141.667L274.049 136.953L273.106 136.01L269.335 139.781L267.449 137.895L266.507 138.838L269.335 141.667Z" fill="#30E8BF"/>
</g>
<g clip-path="url(#clip3_4270_411)">
<path d="M380 145.667C376.318 145.667 373.333 142.682 373.333 139C373.333 135.318 376.318 132.333 380 132.333C383.682 132.333 386.667 135.318 386.667 139C386.667 142.682 383.682 145.667 380 145.667ZM379.335 141.667L384.049 136.953L383.106 136.01L379.335 139.781L377.449 137.895L376.507 138.838L379.335 141.667Z" fill="#484848"/>
</g>
<g clip-path="url(#clip4_4270_411)">
<path d="M213 239.667C209.318 239.667 206.333 236.682 206.333 233C206.333 229.318 209.318 226.333 213 226.333C216.682 226.333 219.667 229.318 219.667 233C219.667 236.682 216.682 239.667 213 239.667ZM212.335 235.667L217.049 230.953L216.106 230.01L212.335 233.781L210.449 231.895L209.507 232.838L212.335 235.667Z" fill="#484848"/>
</g>
<g clip-path="url(#clip5_4270_411)">
<path d="M269 239.667C265.318 239.667 262.333 236.682 262.333 233C262.333 229.318 265.318 226.333 269 226.333C272.682 226.333 275.667 229.318 275.667 233C275.667 236.682 272.682 239.667 269 239.667ZM268.335 235.667L273.049 230.953L272.106 230.01L268.335 233.781L266.449 231.895L265.507 232.838L268.335 235.667Z" fill="#484848"/>
</g>
<g clip-path="url(#clip6_4270_411)">
<path d="M325 239.667C321.318 239.667 318.333 236.682 318.333 233C318.333 229.318 321.318 226.333 325 226.333C328.682 226.333 331.667 229.318 331.667 233C331.667 236.682 328.682 239.667 325 239.667ZM324.335 235.667L329.049 230.953L328.106 230.01L324.335 233.781L322.449 231.895L321.507 232.838L324.335 235.667Z" fill="#484848"/>
</g>
<g clip-path="url(#clip7_4270_411)">
<path d="M381 239.667C377.318 239.667 374.333 236.682 374.333 233C374.333 229.318 377.318 226.333 381 226.333C384.682 226.333 387.667 229.318 387.667 233C387.667 236.682 384.682 239.667 381 239.667ZM380.335 235.667L385.049 230.953L384.106 230.01L380.335 233.781L378.449 231.895L377.507 232.838L380.335 235.667Z" fill="#484848"/>
</g>
<g clip-path="url(#clip8_4270_411)">
<path d="M437 239.667C433.318 239.667 430.333 236.682 430.333 233C430.333 229.318 433.318 226.333 437 226.333C440.682 226.333 443.667 229.318 443.667 233C443.667 236.682 440.682 239.667 437 239.667ZM436.335 235.667L441.049 230.953L440.106 230.01L436.335 233.781L434.449 231.895L433.507 232.838L436.335 235.667Z" fill="#484848"/>
</g>
<g clip-path="url(#clip9_4270_411)">
<path d="M437 145.667C433.318 145.667 430.333 142.682 430.333 139C430.333 135.318 433.318 132.333 437 132.333C440.682 132.333 443.667 135.318 443.667 139C443.667 142.682 440.682 145.667 437 145.667ZM436.335 141.667L441.049 136.953L440.106 136.01L436.335 139.781L434.449 137.895L433.507 138.838L436.335 141.667Z" fill="#484848"/>
</g>
<g clip-path="url(#clip10_4270_411)">
<path d="M325 138.057L328.3 134.757L329.243 135.7L325.943 139L329.243 142.3L328.3 143.243L325 139.943L321.7 143.243L320.757 142.3L324.057 139L320.757 135.7L321.7 134.757L325 138.057Z" fill="#484848"/>
</g>
<g clip-path="url(#clip11_4270_411)">
<path d="M157 232.057L160.3 228.757L161.243 229.7L157.943 233L161.243 236.3L160.3 237.243L157 233.943L153.7 237.243L152.757 236.3L156.057 233L152.757 229.7L153.7 228.757L157 232.057Z" fill="#484848"/>
</g>
<defs>
<linearGradient id="paint0_linear_4270_411" x1="137" y1="175" x2="288.999" y2="175" gradientUnits="userSpaceOnUse">
<stop stop-color="#30E8BF"/>
<stop offset="1" stop-color="#82F8C7"/>
</linearGradient>
<clipPath id="clip0_4270_411">
<rect width="16" height="16" fill="white" transform="translate(148 131)"/>
</clipPath>
<clipPath id="clip1_4270_411">
<rect width="16" height="16" fill="white" transform="translate(205 131)"/>
</clipPath>
<clipPath id="clip2_4270_411">
<rect width="16" height="16" fill="white" transform="translate(262 131)"/>
</clipPath>
<clipPath id="clip3_4270_411">
<rect width="16" height="16" fill="white" transform="translate(372 131)"/>
</clipPath>
<clipPath id="clip4_4270_411">
<rect width="16" height="16" fill="white" transform="translate(205 225)"/>
</clipPath>
<clipPath id="clip5_4270_411">
<rect width="16" height="16" fill="white" transform="translate(261 225)"/>
</clipPath>
<clipPath id="clip6_4270_411">
<rect width="16" height="16" fill="white" transform="translate(317 225)"/>
</clipPath>
<clipPath id="clip7_4270_411">
<rect width="16" height="16" fill="white" transform="translate(373 225)"/>
</clipPath>
<clipPath id="clip8_4270_411">
<rect width="16" height="16" fill="white" transform="translate(429 225)"/>
</clipPath>
<clipPath id="clip9_4270_411">
<rect width="16" height="16" fill="white" transform="translate(429 131)"/>
</clipPath>
<clipPath id="clip10_4270_411">
<rect width="16" height="16" fill="white" transform="translate(317 131)"/>
</clipPath>
<clipPath id="clip11_4270_411">
<rect width="16" height="16" fill="white" transform="translate(149 225)"/>
</clipPath>
</defs>
</svg>
