<svg width="64" height="64" viewBox="0 0 64 64" fill="none" xmlns="http://www.w3.org/2000/svg">
<g clip-path="url(#clip0_4445_13)">
<path d="M32.0001 1.33334L43.2694 17.8213L62.4348 23.4453L50.2348 39.2587L50.8081 59.2213L32.0001 52.5067L13.1921 59.2213L13.7654 39.2587L1.56543 23.4453L20.7308 17.8213L32.0001 1.33334ZM32.0001 10.784L24.0588 22.4053L10.5521 26.3653L19.1521 37.5067L18.7441 51.5733L32.0001 46.8427L45.2534 51.5733L44.8481 37.5067L53.4454 26.3653L39.9414 22.4053L32.0001 10.784ZM26.6668 32C26.6668 33.4145 27.2287 34.7711 28.2289 35.7712C29.2291 36.7714 30.5856 37.3333 32.0001 37.3333C33.4146 37.3333 34.7711 36.7714 35.7713 35.7712C36.7715 34.7711 37.3334 33.4145 37.3334 32H42.6668C42.6668 34.829 41.543 37.5421 39.5426 39.5425C37.5422 41.5429 34.8291 42.6667 32.0001 42.6667C29.1711 42.6667 26.458 41.5429 24.4576 39.5425C22.4572 37.5421 21.3334 34.829 21.3334 32H26.6668Z" fill="white"/>
</g>
<defs>
<clipPath id="clip0_4445_13">
<rect width="64" height="64" fill="white"/>
</clipPath>
</defs>
</svg>
