<svg width="371" height="295" viewBox="0 0 371 295" fill="none" xmlns="http://www.w3.org/2000/svg">
<path d="M370.616 87.9711C370.616 87.9711 370.693 87.9711 370.731 87.9711V12.7128C370.731 12.7128 370.654 12.7128 370.616 12.7128C364.066 12.7128 358.75 7.39778 358.75 0.848547C358.75 0.578555 358.766 0.316276 358.781 0.0539984H351.236C351.267 0.277706 351.29 0.501414 351.29 0.732836C351.29 3.35562 349.169 5.47698 346.546 5.47698C343.923 5.47698 341.801 3.35562 341.801 0.732836C341.801 0.501414 341.824 0.277706 341.855 0.0539984H334.318C334.349 0.277706 334.372 0.501414 334.372 0.732836C334.372 3.35562 332.25 5.47698 329.627 5.47698C327.004 5.47698 324.883 3.35562 324.883 0.732836C324.883 0.501414 324.906 0.277706 324.937 0.0539984H317.399C317.43 0.277706 317.453 0.501414 317.453 0.732836C317.453 3.35562 315.332 5.47698 312.709 5.47698C310.086 5.47698 307.964 3.35562 307.964 0.732836C307.964 0.501414 307.987 0.277706 308.018 0.0539984H300.481C300.512 0.277706 300.535 0.501414 300.535 0.732836C300.535 3.35562 298.413 5.47698 295.79 5.47698C293.167 5.47698 291.046 3.35562 291.046 0.732836C291.046 0.501414 291.069 0.277706 291.1 0.0539984H283.354C283.385 0.277706 283.408 0.501414 283.408 0.732836C283.408 0.894831 283.4 1.05683 283.385 1.21111C283.385 1.27282 283.362 1.34225 283.354 1.40396C283.339 1.49653 283.331 1.5891 283.315 1.68166C283.3 1.75881 283.277 1.82823 283.261 1.90537C283.246 1.98251 283.223 2.05965 283.2 2.12908C283.177 2.21394 283.138 2.29879 283.107 2.38364C283.084 2.44536 283.069 2.50707 283.038 2.56107C282.999 2.65364 282.953 2.74621 282.907 2.83106C282.883 2.87734 282.868 2.92363 282.837 2.96991C282.783 3.0702 282.721 3.16276 282.667 3.25533C282.644 3.28619 282.629 3.32476 282.606 3.35562C282.536 3.46361 282.459 3.5639 282.382 3.65646C282.367 3.67189 282.351 3.69503 282.336 3.71046C282.251 3.81846 282.158 3.91874 282.066 4.01131C282.058 4.01902 282.05 4.03445 282.043 4.04217C281.942 4.14245 281.834 4.24273 281.726 4.3353C281.726 4.3353 281.726 4.3353 281.719 4.34302C280.916 5.02185 279.89 5.4307 278.764 5.46155C276.195 5.40756 274.127 3.30933 274.127 0.717408C274.127 0.485986 274.15 0.262278 274.181 0.0385703H266.436C266.466 0.262278 266.49 0.485986 266.49 0.717408C266.49 0.879403 266.482 1.0414 266.466 1.19568C266.466 1.25739 266.443 1.32682 266.436 1.38853C266.42 1.4811 266.412 1.57367 266.397 1.66624C266.382 1.74338 266.358 1.82052 266.343 1.88994C266.328 1.96709 266.304 2.04423 266.289 2.11365C266.266 2.19851 266.227 2.28336 266.196 2.36822C266.173 2.42993 266.158 2.48393 266.135 2.54564C266.096 2.63821 266.05 2.73078 266.004 2.82335C265.98 2.86963 265.965 2.91591 265.942 2.95448C265.888 3.05477 265.826 3.14734 265.764 3.24762C265.741 3.27848 265.726 3.30933 265.71 3.34019C265.641 3.44047 265.564 3.54075 265.487 3.64104C265.471 3.66418 265.456 3.67961 265.44 3.70275C265.356 3.81075 265.263 3.91103 265.17 4.0036C265.163 4.01131 265.155 4.02674 265.147 4.03445C265.047 4.13474 264.939 4.23502 264.831 4.32759C264.831 4.32759 264.831 4.32759 264.823 4.3353C264.021 5.01414 262.995 5.42298 261.868 5.45384C259.299 5.39984 257.232 3.30162 257.232 0.709693C257.232 0.478272 257.255 0.254564 257.286 0.0308562H249.54C249.571 0.254564 249.594 0.478272 249.594 0.709693C249.594 0.871689 249.587 1.03368 249.571 1.18797C249.571 1.24968 249.548 1.3191 249.54 1.38082C249.525 1.47339 249.517 1.56595 249.502 1.65852C249.486 1.73566 249.463 1.8128 249.448 1.88223C249.432 1.95937 249.409 2.03651 249.394 2.10594C249.371 2.19079 249.332 2.27565 249.301 2.3605C249.278 2.42221 249.263 2.47621 249.239 2.53793C249.201 2.63049 249.155 2.72306 249.108 2.81563C249.085 2.86192 249.07 2.9082 249.047 2.94677C248.993 3.04705 248.931 3.13962 248.869 3.23991C248.846 3.27076 248.831 3.30162 248.815 3.33247C248.746 3.44047 248.669 3.54075 248.591 3.63332C248.576 3.64875 248.56 3.67189 248.545 3.68732C248.46 3.79532 248.368 3.8956 248.275 3.98817C248.267 3.99588 248.26 4.01131 248.252 4.01903C248.152 4.11931 248.044 4.21959 247.936 4.31216C247.936 4.31216 247.936 4.31216 247.928 4.31987C247.126 4.99871 246.099 5.40756 244.973 5.43841C242.404 5.38441 240.337 3.28619 240.337 0.694265C240.337 0.462844 240.36 0.239136 240.391 0.0154281H232.645C232.676 0.239136 232.699 0.462844 232.699 0.694265C232.699 0.856261 232.691 1.01826 232.676 1.17254C232.676 1.23425 232.653 1.30368 232.645 1.36539C232.63 1.45796 232.622 1.55053 232.606 1.64309C232.591 1.72024 232.568 1.79738 232.552 1.8668C232.537 1.94394 232.514 2.02108 232.498 2.09051C232.475 2.17536 232.437 2.26022 232.406 2.34507C232.383 2.40679 232.367 2.46079 232.344 2.5225C232.305 2.61507 232.259 2.70763 232.213 2.8002C232.19 2.84649 232.174 2.89277 232.151 2.93134C232.097 3.03163 232.035 3.12419 231.974 3.22448C231.951 3.25533 231.935 3.28619 231.92 3.31705C231.85 3.42504 231.773 3.52533 231.696 3.61789C231.681 3.63332 231.665 3.65646 231.65 3.67189C231.565 3.77989 231.472 3.88017 231.38 3.97274C231.372 3.98045 231.364 3.99588 231.357 4.0036C231.256 4.10388 231.148 4.20416 231.04 4.29673C231.04 4.29673 231.04 4.29673 231.033 4.30445C230.23 4.98328 229.204 5.39213 228.078 5.42298C225.509 5.36899 223.441 3.27076 223.441 0.678837C223.441 0.447415 223.464 0.223708 223.495 0H215.534C215.564 0.223708 215.588 0.447415 215.588 0.678837C215.588 3.26305 213.52 5.36127 210.951 5.42298C208.382 5.36899 206.314 3.27076 206.314 0.678837C206.314 0.447415 206.338 0.223708 206.368 0H198.623C198.654 0.223708 198.677 0.447415 198.677 0.678837C198.677 3.26305 196.609 5.36127 194.04 5.42298C191.471 5.36899 189.404 3.27076 189.404 0.678837C189.404 0.447415 189.427 0.223708 189.458 0H181.712C181.743 0.223708 181.766 0.447415 181.766 0.678837C181.766 3.26305 179.699 5.36127 177.13 5.42298C174.56 5.36899 172.493 3.27076 172.493 0.678837C172.493 0.447415 172.516 0.223708 172.547 0H164.801C164.832 0.223708 164.855 0.447415 164.855 0.678837C164.855 3.26305 162.788 5.36127 160.219 5.42298C157.65 5.36899 155.582 3.27076 155.582 0.678837C155.582 0.447415 155.605 0.223708 155.636 0H147.675C147.705 0.223708 147.729 0.447415 147.729 0.678837C147.729 3.26305 145.661 5.36127 143.092 5.42298C141.966 5.39984 140.94 4.98328 140.137 4.30445C140.137 4.30445 140.137 4.30445 140.13 4.29673C140.021 4.20416 139.913 4.10388 139.813 4.0036C139.805 3.99588 139.798 3.98045 139.79 3.97274C139.697 3.87246 139.605 3.77218 139.52 3.67189C139.505 3.65646 139.489 3.63332 139.474 3.61789C139.397 3.51761 139.319 3.41733 139.25 3.31705C139.227 3.28619 139.211 3.25533 139.196 3.22448C139.134 3.13191 139.073 3.03163 139.019 2.93134C138.995 2.88506 138.98 2.83877 138.957 2.8002C138.911 2.70763 138.864 2.61507 138.826 2.5225C138.803 2.46079 138.779 2.39907 138.756 2.34507C138.725 2.26022 138.695 2.18308 138.664 2.09051C138.641 2.01337 138.625 1.93623 138.602 1.8668C138.587 1.78966 138.563 1.72024 138.548 1.64309C138.533 1.55053 138.517 1.45796 138.509 1.36539C138.502 1.30368 138.486 1.24196 138.479 1.17254C138.463 1.01054 138.455 0.856261 138.455 0.694265C138.455 0.462844 138.479 0.239136 138.509 0.0154281H130.764C130.795 0.239136 130.818 0.462844 130.818 0.694265C130.818 3.27848 128.75 5.3767 126.181 5.43841C125.055 5.41527 124.029 4.99871 123.226 4.31987C123.118 4.2273 123.01 4.12702 122.902 4.01903C122.895 4.01131 122.887 4.0036 122.879 3.99588C122.787 3.8956 122.694 3.79532 122.602 3.68732C122.586 3.67189 122.571 3.64875 122.555 3.63332C122.478 3.53304 122.401 3.43276 122.332 3.33247C122.308 3.30162 122.293 3.27076 122.278 3.23991C122.216 3.14734 122.154 3.04705 122.1 2.94677C122.077 2.90049 122.054 2.8542 122.038 2.81563C121.992 2.72306 121.946 2.63049 121.907 2.53793C121.884 2.48393 121.861 2.42221 121.846 2.3605C121.815 2.27565 121.784 2.19079 121.753 2.10594C121.73 2.0288 121.714 1.95937 121.699 1.88223C121.676 1.80509 121.66 1.73566 121.645 1.65852C121.629 1.56595 121.614 1.47339 121.606 1.38082C121.599 1.3191 121.583 1.25739 121.576 1.18797C121.56 1.02597 121.552 0.871689 121.552 0.709693C121.552 0.478272 121.575 0.254564 121.606 0.0308562H113.861C113.892 0.254564 113.915 0.478272 113.915 0.709693C113.915 3.2939 111.847 5.39213 109.278 5.45384C108.152 5.4307 107.126 5.01414 106.323 4.3353C106.323 4.3353 106.323 4.3353 106.316 4.32759C106.208 4.23502 106.1 4.13474 105.999 4.03445C105.992 4.02674 105.984 4.01131 105.976 4.0036C105.884 3.90331 105.791 3.80303 105.706 3.70275C105.691 3.68732 105.675 3.66418 105.668 3.64875C105.591 3.54847 105.513 3.44818 105.444 3.3479C105.428 3.31705 105.405 3.28619 105.39 3.25533C105.328 3.15505 105.266 3.06248 105.212 2.95448C105.189 2.91591 105.174 2.86963 105.151 2.82335C105.104 2.73078 105.058 2.63821 105.02 2.54564C104.996 2.49164 104.973 2.42993 104.958 2.36822C104.927 2.28336 104.896 2.19851 104.865 2.11365C104.842 2.03651 104.827 1.96709 104.811 1.88994C104.788 1.8128 104.773 1.74338 104.757 1.66624C104.742 1.57367 104.726 1.4811 104.719 1.38853C104.711 1.32682 104.696 1.26511 104.688 1.19568C104.672 1.03368 104.665 0.879403 104.665 0.717408C104.665 0.485986 104.688 0.262278 104.719 0.0385703H96.9731C97.004 0.262278 97.0271 0.485986 97.0271 0.717408C97.0271 3.30162 94.9596 5.39984 92.3905 5.46155C91.2642 5.43841 90.2381 5.02185 89.4358 4.34302C89.3278 4.25045 89.2198 4.15016 89.1118 4.04217C89.104 4.03445 89.0963 4.02674 89.0886 4.01903C88.996 3.91874 88.9035 3.81846 88.8109 3.71046C88.7955 3.69503 88.78 3.67189 88.7646 3.65646C88.6875 3.55618 88.6103 3.4559 88.5409 3.35562C88.5177 3.32476 88.5023 3.2939 88.4869 3.26305C88.4252 3.17048 88.3634 3.0702 88.3094 2.96991C88.2863 2.92363 88.2631 2.87734 88.2477 2.83877C88.2014 2.74621 88.1551 2.65364 88.1166 2.56107C88.0934 2.50707 88.0703 2.44536 88.0548 2.38364C88.024 2.29879 87.9931 2.21394 87.9623 2.12908C87.9391 2.05194 87.9237 1.98251 87.9083 1.90537C87.8851 1.82823 87.8697 1.75881 87.8543 1.68166C87.8388 1.5891 87.8234 1.49653 87.8157 1.40396C87.808 1.34225 87.7925 1.28053 87.7848 1.21111C87.7694 1.04911 87.7617 0.894831 87.7617 0.732836C87.7617 0.501414 87.7848 0.277706 87.8157 0.0539984H80.0469C80.0623 0.316276 80.0778 0.578555 80.0778 0.848547C80.0778 1.10311 80.0546 1.34996 80.0392 1.59681C79.638 3.81075 77.7016 5.4847 75.3718 5.4847C72.7488 5.4847 70.6272 3.36333 70.6272 0.74055C70.6272 0.509128 70.6503 0.28542 70.6812 0.0617125H63.1439C63.1747 0.28542 63.1979 0.509128 63.1979 0.74055C63.1979 3.36333 61.0763 5.4847 58.4533 5.4847C55.8303 5.4847 53.7087 3.36333 53.7087 0.74055C53.7087 0.509128 53.7319 0.28542 53.7627 0.0617125H46.2254C46.2563 0.28542 46.2794 0.509128 46.2794 0.74055C46.2794 3.36333 44.1578 5.4847 41.5348 5.4847C38.9118 5.4847 36.7902 3.36333 36.7902 0.74055C36.7902 0.509128 36.8134 0.28542 36.8442 0.0617125H29.3069C29.3378 0.28542 29.3609 0.509128 29.3609 0.74055C29.3609 3.36333 27.2394 5.4847 24.6163 5.4847C21.9933 5.4847 19.8718 3.36333 19.8718 0.74055C19.8718 0.509128 19.8949 0.28542 19.9258 0.0617125H11.9873C12.0027 0.323991 12.0181 0.586269 12.0181 0.856261C12.0181 7.37464 6.76439 12.6588 0.268555 12.7205V87.9789C6.7721 88.0406 12.0181 93.3247 12.0181 99.8431C12.0181 106.361 6.76439 111.646 0.268555 111.707V389.005C6.7721 389.066 12.0181 394.35 12.0181 400.869C12.0181 400.907 12.0181 400.946 12.0181 400.985H19.7175C19.7175 400.907 19.7098 400.838 19.7098 400.761C19.7098 398.138 21.8313 396.017 24.4543 396.017C27.0774 396.017 29.1989 398.138 29.1989 400.761C29.1989 400.838 29.1912 400.915 29.1912 400.985H36.6437C36.6437 400.907 36.636 400.838 36.636 400.761C36.636 398.138 38.7575 396.017 41.3805 396.017C44.0035 396.017 46.1251 398.138 46.1251 400.761C46.1251 400.838 46.1174 400.915 46.1174 400.985H53.5699C53.5699 400.907 53.5621 400.838 53.5621 400.761C53.5621 398.138 55.6837 396.017 58.3067 396.017C60.9297 396.017 63.0513 398.138 63.0513 400.761C63.0513 400.838 63.0436 400.915 63.0436 400.985H70.496C70.496 400.907 70.4883 400.838 70.4883 400.761C70.4883 398.138 72.6099 396.017 75.2329 396.017C77.5242 396.017 79.4375 397.637 79.8849 399.797C79.9158 400.151 79.9389 400.506 79.9389 400.877C79.9389 400.915 79.9389 400.954 79.9389 400.992H87.6383C87.6383 400.915 87.6305 400.846 87.6305 400.769C87.6305 400.607 87.6382 400.445 87.6537 400.29C87.6537 400.229 87.6768 400.167 87.6845 400.097C87.7 400.005 87.7077 399.912 87.7231 399.82C87.7385 399.743 87.7617 399.673 87.7771 399.596C87.8003 399.519 87.8157 399.442 87.8388 399.365C87.862 399.28 87.9006 399.195 87.9314 399.11C87.9546 399.048 87.97 398.987 87.9931 398.933C88.0317 398.84 88.078 398.747 88.1243 398.655C88.1474 398.609 88.1628 398.562 88.186 398.524C88.24 398.423 88.3017 398.331 88.3634 398.231C88.3866 398.2 88.402 398.169 88.4174 398.138C88.4869 398.038 88.564 397.938 88.6412 397.837C88.6566 397.814 88.672 397.799 88.6875 397.776C88.7723 397.668 88.8649 397.567 88.9575 397.467C88.9652 397.459 88.9729 397.452 88.9806 397.444C89.0809 397.336 89.1889 397.243 89.3046 397.143C90.107 396.464 91.133 396.055 92.2594 396.024C94.8284 396.078 96.896 398.177 96.896 400.769C96.896 400.846 96.8882 400.923 96.8882 400.992H104.549C104.549 400.915 104.541 400.846 104.541 400.769C104.541 400.607 104.549 400.445 104.564 400.29C104.564 400.229 104.588 400.167 104.595 400.097C104.611 400.005 104.618 399.912 104.634 399.82C104.649 399.743 104.672 399.673 104.688 399.596C104.711 399.519 104.726 399.442 104.75 399.365C104.773 399.28 104.811 399.195 104.842 399.11C104.865 399.048 104.881 398.987 104.904 398.933C104.942 398.84 104.989 398.747 105.035 398.655C105.058 398.609 105.074 398.57 105.097 398.524C105.151 398.423 105.212 398.323 105.274 398.223C105.29 398.192 105.313 398.161 105.328 398.13C105.398 398.022 105.475 397.93 105.552 397.83C105.567 397.806 105.583 397.791 105.598 397.768C105.683 397.66 105.776 397.56 105.868 397.467C105.876 397.459 105.884 397.444 105.891 397.436C105.992 397.336 106.1 397.236 106.208 397.143C106.208 397.143 106.208 397.143 106.215 397.135C107.018 396.456 108.044 396.048 109.17 396.017C111.739 396.071 113.807 398.169 113.807 400.761C113.807 400.838 113.799 400.915 113.799 400.985H121.46C121.46 400.907 121.452 400.838 121.452 400.761C121.452 400.599 121.46 400.437 121.475 400.283C121.475 400.221 121.498 400.151 121.506 400.09C121.521 399.997 121.529 399.905 121.545 399.812C121.56 399.735 121.583 399.658 121.599 399.588C121.614 399.511 121.637 399.434 121.653 399.365C121.676 399.28 121.714 399.195 121.745 399.11C121.768 399.048 121.784 398.994 121.807 398.933C121.846 398.84 121.892 398.747 121.938 398.655C121.961 398.609 121.977 398.562 122 398.524C122.054 398.423 122.116 398.323 122.177 398.231C122.193 398.2 122.216 398.169 122.231 398.138C122.301 398.03 122.378 397.93 122.455 397.837C122.47 397.822 122.486 397.799 122.501 397.783C122.586 397.675 122.679 397.575 122.771 397.475C122.779 397.467 122.787 397.459 122.794 397.452C122.895 397.344 123.003 397.243 123.118 397.151C123.921 396.472 124.947 396.063 126.073 396.032C128.642 396.086 130.71 398.184 130.71 400.776C130.71 400.853 130.702 400.931 130.702 401H138.363C138.363 400.923 138.355 400.853 138.355 400.776C138.355 400.614 138.363 400.452 138.378 400.298C138.378 400.236 138.401 400.175 138.409 400.105C138.425 400.013 138.432 399.92 138.448 399.827C138.463 399.75 138.486 399.681 138.502 399.604C138.525 399.527 138.54 399.449 138.563 399.372C138.587 399.287 138.625 399.203 138.656 399.118C138.679 399.056 138.695 398.994 138.718 398.94C138.756 398.848 138.803 398.755 138.849 398.663C138.872 398.616 138.887 398.578 138.911 398.531C138.965 398.431 139.026 398.331 139.088 398.231C139.103 398.2 139.127 398.169 139.142 398.138C139.211 398.03 139.289 397.938 139.366 397.837C139.381 397.814 139.397 397.799 139.412 397.776C139.497 397.668 139.589 397.567 139.682 397.475C139.69 397.467 139.697 397.452 139.705 397.444C139.805 397.344 139.913 397.243 140.021 397.151C140.021 397.151 140.021 397.151 140.029 397.143C140.832 396.464 141.858 396.055 142.984 396.024C145.553 396.078 147.621 398.177 147.621 400.769C147.621 400.846 147.613 400.923 147.613 400.992H155.49C155.49 400.915 155.482 400.846 155.482 400.769C155.482 398.184 157.549 396.086 160.118 396.024C162.687 396.078 164.755 398.177 164.755 400.769C164.755 400.846 164.747 400.923 164.747 400.992H172.408C172.408 400.915 172.4 400.846 172.4 400.769C172.4 398.184 174.468 396.086 177.037 396.024C179.606 396.078 181.673 398.177 181.673 400.769C181.673 400.846 181.666 400.923 181.666 400.992H189.327C189.327 400.915 189.319 400.846 189.319 400.769C189.319 398.184 191.386 396.086 193.955 396.024C196.524 396.078 198.592 398.177 198.592 400.769C198.592 400.846 198.584 400.923 198.584 400.992H206.245C206.245 400.915 206.237 400.846 206.237 400.769C206.237 398.184 208.305 396.086 210.874 396.024C213.443 396.078 215.51 398.177 215.51 400.769C215.51 400.846 215.503 400.923 215.503 400.992H223.38C223.38 400.915 223.372 400.846 223.372 400.769C223.372 398.184 225.439 396.086 228.008 396.024C229.135 396.048 230.161 396.464 230.963 397.143C230.963 397.143 230.963 397.143 230.971 397.151C231.079 397.243 231.187 397.344 231.287 397.444C231.295 397.452 231.303 397.467 231.31 397.475C231.403 397.575 231.495 397.675 231.58 397.776C231.596 397.791 231.611 397.814 231.627 397.837C231.704 397.938 231.781 398.038 231.85 398.138C231.873 398.169 231.889 398.2 231.904 398.231C231.966 398.323 232.028 398.423 232.082 398.524C232.105 398.57 232.128 398.616 232.143 398.655C232.19 398.747 232.236 398.84 232.275 398.933C232.298 398.994 232.321 399.048 232.336 399.11C232.367 399.195 232.398 399.28 232.429 399.365C232.452 399.442 232.467 399.519 232.491 399.596C232.506 399.673 232.529 399.743 232.545 399.82C232.56 399.912 232.576 400.005 232.583 400.097C232.591 400.159 232.606 400.221 232.614 400.29C232.63 400.452 232.637 400.607 232.637 400.769C232.637 400.846 232.63 400.923 232.63 400.992H240.29C240.29 400.915 240.283 400.846 240.283 400.769C240.283 398.184 242.35 396.086 244.919 396.024C246.045 396.048 247.072 396.464 247.874 397.143C247.874 397.143 247.874 397.143 247.882 397.151C247.99 397.243 248.098 397.344 248.198 397.444C248.206 397.452 248.213 397.467 248.221 397.475C248.314 397.575 248.406 397.675 248.491 397.776C248.507 397.791 248.522 397.814 248.537 397.837C248.615 397.938 248.692 398.038 248.761 398.138C248.784 398.169 248.8 398.2 248.815 398.231C248.877 398.323 248.939 398.423 248.993 398.524C249.016 398.57 249.039 398.616 249.054 398.655C249.101 398.747 249.147 398.84 249.185 398.933C249.209 398.994 249.232 399.048 249.247 399.11C249.278 399.195 249.309 399.28 249.34 399.365C249.363 399.442 249.378 399.519 249.401 399.596C249.417 399.673 249.44 399.743 249.455 399.82C249.471 399.912 249.486 400.005 249.494 400.097C249.502 400.159 249.517 400.221 249.525 400.29C249.54 400.452 249.548 400.607 249.548 400.769C249.548 400.846 249.54 400.923 249.54 400.992H257.201C257.201 400.915 257.193 400.846 257.193 400.769C257.193 398.184 259.261 396.086 261.83 396.024C262.956 396.048 263.982 396.464 264.785 397.143C264.893 397.236 265.001 397.336 265.109 397.444C265.116 397.452 265.124 397.467 265.132 397.475C265.224 397.575 265.317 397.675 265.402 397.776C265.417 397.799 265.433 397.814 265.448 397.837C265.525 397.938 265.602 398.038 265.672 398.138C265.695 398.169 265.71 398.2 265.726 398.231C265.788 398.331 265.849 398.423 265.903 398.524C265.926 398.57 265.942 398.609 265.965 398.655C266.011 398.747 266.058 398.84 266.096 398.933C266.119 398.987 266.142 399.048 266.158 399.11C266.189 399.195 266.22 399.28 266.25 399.365C266.274 399.442 266.289 399.511 266.304 399.588C266.328 399.665 266.343 399.735 266.358 399.812C266.374 399.905 266.389 399.997 266.397 400.09C266.405 400.151 266.42 400.213 266.428 400.283C266.443 400.445 266.451 400.599 266.451 400.761C266.451 400.838 266.443 400.915 266.443 400.985H274.104C274.104 400.907 274.096 400.838 274.096 400.761C274.096 398.177 276.164 396.078 278.733 396.017C279.859 396.04 280.885 396.456 281.688 397.135C281.688 397.135 281.688 397.135 281.695 397.143C281.803 397.236 281.911 397.336 282.012 397.436C282.019 397.444 282.027 397.459 282.035 397.467C282.127 397.567 282.22 397.668 282.305 397.768C282.32 397.783 282.336 397.806 282.351 397.83C282.428 397.93 282.505 398.03 282.575 398.13C282.598 398.161 282.613 398.192 282.629 398.223C282.691 398.316 282.752 398.416 282.806 398.516C282.829 398.562 282.853 398.609 282.868 398.647C282.914 398.74 282.961 398.832 282.999 398.925C283.022 398.987 283.045 399.041 283.061 399.102C283.092 399.187 283.123 399.272 283.154 399.357C283.177 399.434 283.192 399.511 283.215 399.588C283.231 399.665 283.254 399.735 283.269 399.812C283.285 399.905 283.3 399.997 283.308 400.09C283.316 400.151 283.331 400.213 283.339 400.283C283.354 400.445 283.362 400.599 283.362 400.761C283.362 400.838 283.354 400.915 283.354 400.985H291.015C291.015 400.907 291.007 400.838 291.007 400.761C291.007 398.138 293.129 396.017 295.752 396.017C298.375 396.017 300.496 398.138 300.496 400.761C300.496 400.838 300.489 400.915 300.489 400.985H307.941C307.941 400.907 307.933 400.838 307.933 400.761C307.933 398.138 310.055 396.017 312.678 396.017C315.301 396.017 317.422 398.138 317.422 400.761C317.422 400.838 317.415 400.915 317.415 400.985H324.867C324.867 400.907 324.859 400.838 324.859 400.761C324.859 398.138 326.981 396.017 329.604 396.017C332.227 396.017 334.349 398.138 334.349 400.761C334.349 400.838 334.341 400.915 334.341 400.985H341.793C341.793 400.907 341.786 400.838 341.786 400.761C341.786 398.138 343.907 396.017 346.53 396.017C349.153 396.017 351.275 398.138 351.275 400.761C351.275 400.838 351.267 400.915 351.267 400.985H358.743C358.743 400.985 358.743 400.907 358.743 400.869C358.743 394.32 364.058 389.005 370.608 389.005C370.647 389.005 370.685 389.005 370.724 389.005V111.7C370.724 111.7 370.647 111.7 370.608 111.7C364.058 111.7 358.743 106.385 358.743 99.8354C358.743 93.2861 364.058 87.9711 370.608 87.9711H370.616ZM24.4466 104.472C21.8236 104.472 19.702 102.35 19.702 99.7274C19.702 97.1046 21.8236 94.9832 24.4466 94.9832C27.0696 94.9832 29.1912 97.1046 29.1912 99.7274C29.1912 102.35 27.0696 104.472 24.4466 104.472ZM41.3651 104.472C38.7421 104.472 36.6205 102.35 36.6205 99.7274C36.6205 97.1046 38.7421 94.9832 41.3651 94.9832C43.9881 94.9832 46.1097 97.1046 46.1097 99.7274C46.1097 102.35 43.9881 104.472 41.3651 104.472ZM58.2836 104.472C55.6606 104.472 53.539 102.35 53.539 99.7274C53.539 97.1046 55.6606 94.9832 58.2836 94.9832C60.9066 94.9832 63.0282 97.1046 63.0282 99.7274C63.0282 102.35 60.9066 104.472 58.2836 104.472ZM79.8695 100.584C79.4683 102.798 77.5319 104.472 75.202 104.472C72.579 104.472 70.4575 102.35 70.4575 99.7274C70.4575 97.1046 72.579 94.9832 75.202 94.9832C77.4933 94.9832 79.4066 96.6032 79.854 98.7631C79.8849 99.118 79.9081 99.4728 79.9081 99.8431C79.9081 100.098 79.8849 100.344 79.8695 100.591V100.584ZM87.6151 99.2414C87.6151 99.1797 87.6382 99.118 87.646 99.0485C87.6614 98.956 87.6691 98.8634 87.6845 98.7708C87.7 98.6937 87.7231 98.6243 87.7385 98.5471C87.7617 98.47 87.7771 98.3928 87.8003 98.3157C87.8234 98.2308 87.862 98.146 87.8928 98.0611C87.916 97.9994 87.9314 97.9377 87.9546 97.8837C87.9931 97.7911 88.0394 97.6986 88.0857 97.606C88.1088 97.5597 88.1243 97.5134 88.1474 97.4749C88.2014 97.3746 88.2631 97.282 88.3249 97.1817C88.348 97.1509 88.3634 97.12 88.3789 97.0892C88.4483 96.9812 88.5254 96.8809 88.6026 96.7883C88.618 96.7729 88.6335 96.7497 88.6489 96.7343C88.7337 96.6263 88.8263 96.526 88.9266 96.4258C88.9343 96.418 88.942 96.4103 88.9498 96.4026C89.05 96.2946 89.1658 96.1943 89.2738 96.1018C90.0761 95.4229 91.1022 95.0064 92.2285 94.9832C94.7975 95.0372 96.8651 97.1354 96.8651 99.7274C96.8651 102.319 94.7975 104.41 92.2285 104.472C91.1022 104.448 90.0761 104.032 89.2738 103.353C89.1658 103.26 89.0578 103.16 88.9498 103.052C88.942 103.044 88.9343 103.029 88.9266 103.021C88.834 102.921 88.7415 102.821 88.6566 102.72C88.6412 102.705 88.6257 102.682 88.6103 102.659C88.5332 102.558 88.456 102.458 88.3866 102.358C88.3634 102.327 88.348 102.296 88.3326 102.265C88.2709 102.173 88.2091 102.072 88.1551 101.972C88.132 101.926 88.1088 101.88 88.0934 101.841C88.0471 101.748 88.0008 101.656 87.9623 101.563C87.9391 101.502 87.916 101.448 87.9006 101.386C87.8697 101.301 87.8388 101.216 87.808 101.131C87.7848 101.054 87.7694 100.977 87.7463 100.9C87.7308 100.823 87.7077 100.753 87.6923 100.676C87.6768 100.584 87.6614 100.491 87.6537 100.398C87.646 100.337 87.6305 100.275 87.6228 100.206C87.6074 100.044 87.5997 99.8894 87.5997 99.7274C87.5997 99.5654 87.6074 99.4034 87.6228 99.2491L87.6151 99.2414ZM104.534 99.2414C104.534 99.1797 104.557 99.118 104.564 99.0485C104.58 98.956 104.588 98.8634 104.603 98.7708C104.618 98.6937 104.642 98.6243 104.657 98.5471C104.68 98.47 104.696 98.3928 104.719 98.3157C104.742 98.2308 104.78 98.146 104.811 98.0611C104.834 97.9994 104.85 97.9377 104.873 97.8837C104.912 97.7911 104.958 97.6986 105.004 97.606C105.027 97.5597 105.043 97.5211 105.066 97.4749C105.12 97.3746 105.182 97.2743 105.243 97.174C105.259 97.1432 105.282 97.1123 105.297 97.0814C105.367 96.9734 105.444 96.8732 105.521 96.7806C105.537 96.7652 105.552 96.742 105.56 96.7266C105.645 96.6186 105.737 96.5183 105.83 96.4258C105.837 96.418 105.845 96.4026 105.853 96.3949C105.953 96.2869 106.061 96.1866 106.177 96.094C106.979 95.4152 108.005 94.9986 109.132 94.9755C111.701 95.0295 113.768 97.1277 113.768 99.7197C113.768 102.312 111.701 104.402 109.132 104.464C108.005 104.441 106.979 104.024 106.177 103.345C106.177 103.345 106.177 103.345 106.169 103.338C106.061 103.245 105.953 103.145 105.853 103.044C105.845 103.037 105.837 103.021 105.822 103.014C105.729 102.913 105.637 102.813 105.552 102.713C105.536 102.697 105.521 102.674 105.506 102.651C105.428 102.551 105.351 102.45 105.282 102.35C105.266 102.319 105.243 102.288 105.228 102.258C105.166 102.157 105.104 102.065 105.05 101.957C105.027 101.918 105.012 101.872 104.989 101.826C104.942 101.733 104.896 101.64 104.858 101.548C104.834 101.494 104.811 101.432 104.796 101.37C104.765 101.286 104.734 101.201 104.703 101.116C104.68 101.039 104.665 100.962 104.642 100.884C104.626 100.807 104.603 100.738 104.588 100.661C104.572 100.568 104.557 100.476 104.549 100.383C104.541 100.321 104.526 100.26 104.518 100.19C104.503 100.028 104.495 99.8739 104.495 99.7119C104.495 99.5499 104.503 99.3879 104.518 99.2337L104.534 99.2414ZM121.452 99.2414C121.452 99.1797 121.475 99.118 121.483 99.0485C121.498 98.956 121.506 98.8634 121.521 98.7708C121.537 98.6937 121.56 98.6243 121.576 98.5471C121.599 98.47 121.614 98.3928 121.637 98.3157C121.66 98.2308 121.699 98.146 121.73 98.0611C121.753 97.9994 121.768 97.9377 121.792 97.8837C121.83 97.7911 121.876 97.6986 121.923 97.606C121.946 97.5597 121.961 97.5134 121.984 97.4749C122.038 97.3746 122.1 97.282 122.162 97.1817C122.185 97.1509 122.2 97.12 122.216 97.0892C122.285 96.9812 122.362 96.8809 122.44 96.7883C122.455 96.7729 122.47 96.7497 122.486 96.7343C122.571 96.6263 122.663 96.526 122.756 96.4335C122.764 96.4258 122.771 96.4103 122.779 96.4026C122.879 96.2946 122.987 96.1943 123.103 96.1018C123.905 95.4229 124.931 95.0064 126.058 94.9832C128.627 95.0372 130.694 97.1354 130.694 99.7274C130.694 102.319 128.627 104.41 126.058 104.472C124.931 104.448 123.905 104.032 123.103 103.353C122.995 103.26 122.887 103.16 122.779 103.052C122.771 103.044 122.764 103.037 122.756 103.021C122.663 102.921 122.571 102.821 122.486 102.72C122.47 102.705 122.455 102.682 122.44 102.666C122.362 102.566 122.285 102.466 122.216 102.366C122.193 102.335 122.177 102.304 122.162 102.273C122.1 102.18 122.038 102.08 121.984 101.98C121.961 101.934 121.938 101.887 121.923 101.849C121.876 101.756 121.83 101.664 121.792 101.571C121.768 101.517 121.745 101.455 121.73 101.394C121.699 101.309 121.668 101.224 121.637 101.139C121.614 101.062 121.599 100.992 121.583 100.915C121.56 100.838 121.545 100.769 121.529 100.692C121.514 100.599 121.498 100.506 121.491 100.414C121.483 100.352 121.467 100.29 121.46 100.221C121.444 100.059 121.437 99.9048 121.437 99.7428C121.437 99.5808 121.444 99.4188 121.46 99.2645L121.452 99.2414ZM138.371 99.2414C138.371 99.1797 138.394 99.118 138.401 99.0485C138.417 98.956 138.425 98.8634 138.44 98.7708C138.455 98.6937 138.479 98.6243 138.494 98.5471C138.517 98.47 138.533 98.3928 138.556 98.3157C138.579 98.2308 138.617 98.146 138.648 98.0611C138.671 97.9994 138.687 97.9377 138.71 97.8837C138.749 97.7911 138.795 97.6986 138.841 97.606C138.864 97.5597 138.88 97.5211 138.903 97.4749C138.957 97.3746 139.019 97.2743 139.08 97.174C139.096 97.1432 139.119 97.1123 139.134 97.0814C139.204 96.9734 139.281 96.8732 139.358 96.7806C139.373 96.7652 139.389 96.742 139.397 96.7266C139.481 96.6186 139.574 96.5183 139.667 96.4258C139.674 96.418 139.682 96.4026 139.69 96.3949C139.79 96.2869 139.898 96.1866 140.014 96.094C140.816 95.4152 141.842 94.9986 142.969 94.9755C145.538 95.0295 147.605 97.1277 147.605 99.7197C147.605 102.312 145.538 104.402 142.969 104.464C141.842 104.441 140.816 104.024 140.014 103.345C140.014 103.345 140.006 103.345 139.998 103.338C139.89 103.245 139.782 103.145 139.682 103.044C139.674 103.037 139.659 103.021 139.651 103.014C139.559 102.921 139.466 102.821 139.381 102.713C139.366 102.69 139.35 102.674 139.335 102.651C139.258 102.551 139.181 102.458 139.111 102.35C139.088 102.319 139.073 102.288 139.057 102.258C138.995 102.165 138.934 102.065 138.88 101.964C138.857 101.918 138.841 101.872 138.818 101.833C138.772 101.741 138.725 101.648 138.687 101.556C138.664 101.494 138.641 101.432 138.617 101.378C138.587 101.293 138.556 101.216 138.525 101.124C138.502 101.046 138.486 100.969 138.463 100.892C138.448 100.815 138.425 100.746 138.409 100.668C138.394 100.576 138.378 100.483 138.371 100.391C138.363 100.329 138.347 100.267 138.34 100.198C138.324 100.036 138.317 99.8817 138.317 99.7197C138.317 99.5577 138.324 99.3957 138.34 99.2414H138.371ZM160.118 104.464C157.549 104.41 155.482 102.312 155.482 99.7197C155.482 97.1277 157.549 95.0372 160.118 94.9755C162.687 95.0295 164.755 97.1277 164.755 99.7197C164.755 102.312 162.687 104.402 160.118 104.464ZM177.037 104.464C174.468 104.41 172.4 102.312 172.4 99.7197C172.4 97.1277 174.468 95.0372 177.037 94.9755C179.606 95.0295 181.673 97.1277 181.673 99.7197C181.673 102.312 179.606 104.402 177.037 104.464ZM193.955 104.464C191.386 104.41 189.319 102.312 189.319 99.7197C189.319 97.1277 191.386 95.0372 193.955 94.9755C196.524 95.0295 198.592 97.1277 198.592 99.7197C198.592 102.312 196.524 104.402 193.955 104.464ZM210.874 104.464C208.305 104.41 206.237 102.312 206.237 99.7197C206.237 97.1277 208.305 95.0372 210.874 94.9755C213.443 95.0295 215.51 97.1277 215.51 99.7197C215.51 102.312 213.443 104.402 210.874 104.464ZM232.622 100.206C232.622 100.267 232.599 100.329 232.591 100.398C232.576 100.491 232.568 100.584 232.552 100.676C232.537 100.753 232.514 100.823 232.498 100.9C232.475 100.977 232.46 101.054 232.437 101.131C232.413 101.216 232.375 101.301 232.344 101.386C232.321 101.448 232.305 101.509 232.282 101.563C232.244 101.656 232.197 101.748 232.151 101.841C232.128 101.887 232.113 101.934 232.089 101.972C232.035 102.072 231.974 102.165 231.912 102.265C231.889 102.296 231.873 102.327 231.858 102.358C231.789 102.458 231.711 102.558 231.634 102.659C231.619 102.682 231.603 102.697 231.588 102.72C231.503 102.828 231.411 102.929 231.318 103.021C231.31 103.029 231.303 103.044 231.287 103.052C231.187 103.152 231.079 103.253 230.971 103.345C230.971 103.345 230.971 103.345 230.963 103.353C230.161 104.032 229.135 104.441 228.008 104.472C225.439 104.418 223.372 102.319 223.372 99.7274C223.372 97.1354 225.439 95.0449 228.008 94.9832C229.135 95.0064 230.161 95.4229 230.963 96.1018C231.079 96.1943 231.187 96.2946 231.287 96.4026C231.295 96.4103 231.303 96.4258 231.31 96.4335C231.403 96.5337 231.495 96.634 231.58 96.7343C231.596 96.7497 231.611 96.7729 231.627 96.7883C231.704 96.8886 231.781 96.9889 231.85 97.0892C231.873 97.12 231.889 97.1509 231.904 97.1817C231.966 97.2743 232.028 97.3746 232.082 97.4749C232.105 97.5211 232.128 97.5674 232.143 97.606C232.19 97.6986 232.236 97.7834 232.275 97.8837C232.298 97.9454 232.321 97.9994 232.336 98.0611C232.367 98.146 232.398 98.2308 232.429 98.3157C232.452 98.3928 232.467 98.47 232.491 98.5471C232.506 98.6243 232.529 98.6937 232.545 98.7708C232.56 98.8634 232.576 98.956 232.583 99.0485C232.591 99.1103 232.606 99.172 232.614 99.2414C232.63 99.4034 232.637 99.5577 232.637 99.7197C232.637 99.8817 232.63 100.044 232.614 100.198L232.622 100.206ZM249.54 100.206C249.54 100.267 249.517 100.329 249.509 100.398C249.494 100.491 249.486 100.584 249.471 100.676C249.455 100.753 249.432 100.823 249.417 100.9C249.394 100.977 249.378 101.054 249.355 101.131C249.332 101.216 249.293 101.301 249.263 101.386C249.239 101.448 249.224 101.509 249.201 101.563C249.162 101.656 249.116 101.748 249.07 101.841C249.047 101.887 249.031 101.934 249.008 101.972C248.954 102.072 248.892 102.165 248.831 102.265C248.807 102.296 248.792 102.327 248.777 102.358C248.707 102.458 248.63 102.558 248.553 102.659C248.537 102.682 248.522 102.697 248.506 102.72C248.422 102.828 248.329 102.929 248.236 103.021C248.229 103.029 248.221 103.044 248.206 103.052C248.105 103.152 247.997 103.253 247.889 103.345C247.889 103.345 247.889 103.345 247.882 103.353C247.079 104.032 246.053 104.441 244.927 104.472C242.358 104.418 240.29 102.319 240.29 99.7274C240.29 97.1354 242.358 95.0449 244.927 94.9832C246.053 95.0064 247.079 95.4229 247.882 96.1018C247.997 96.1943 248.105 96.2946 248.206 96.4026C248.213 96.4103 248.221 96.4258 248.229 96.4335C248.321 96.5337 248.414 96.634 248.499 96.7343C248.514 96.7497 248.53 96.7729 248.545 96.7883C248.622 96.8886 248.699 96.9889 248.769 97.0892C248.792 97.12 248.807 97.1509 248.823 97.1817C248.885 97.2743 248.946 97.3746 249 97.4749C249.023 97.5211 249.047 97.5674 249.062 97.606C249.108 97.6986 249.155 97.7834 249.193 97.8837C249.216 97.9454 249.239 97.9994 249.255 98.0611C249.286 98.146 249.317 98.2308 249.347 98.3157C249.371 98.3928 249.386 98.47 249.409 98.5471C249.425 98.6243 249.448 98.6937 249.463 98.7708C249.479 98.8634 249.494 98.956 249.502 99.0485C249.509 99.1103 249.525 99.172 249.533 99.2414C249.548 99.4034 249.556 99.5577 249.556 99.7197C249.556 99.8817 249.548 100.044 249.533 100.198L249.54 100.206ZM266.459 100.206C266.459 100.267 266.436 100.337 266.428 100.398C266.412 100.491 266.405 100.584 266.389 100.676C266.374 100.753 266.351 100.83 266.335 100.9C266.32 100.977 266.297 101.054 266.281 101.124C266.258 101.208 266.22 101.293 266.189 101.378C266.166 101.44 266.15 101.494 266.127 101.556C266.088 101.648 266.042 101.741 265.996 101.833C265.973 101.88 265.957 101.926 265.934 101.964C265.88 102.065 265.818 102.157 265.757 102.258C265.734 102.288 265.718 102.319 265.703 102.35C265.633 102.45 265.556 102.551 265.479 102.651C265.464 102.674 265.448 102.69 265.433 102.713C265.348 102.821 265.255 102.921 265.163 103.014C265.155 103.021 265.147 103.037 265.132 103.044C265.031 103.145 264.924 103.245 264.815 103.338C264.815 103.338 264.815 103.338 264.808 103.345C264.005 104.024 262.979 104.433 261.853 104.464C259.284 104.41 257.216 102.312 257.216 99.7197C257.216 97.1277 259.284 95.0372 261.853 94.9755C262.979 94.9986 264.005 95.4152 264.808 96.094C264.916 96.1866 265.024 96.2869 265.132 96.3949C265.139 96.4026 265.147 96.418 265.163 96.4258C265.255 96.526 265.348 96.6263 265.433 96.7266C265.448 96.7497 265.464 96.7652 265.479 96.7883C265.556 96.8886 265.633 96.9812 265.703 97.0892C265.726 97.12 265.741 97.1509 265.757 97.1817C265.818 97.2743 265.88 97.3746 265.934 97.4749C265.957 97.5211 265.98 97.5674 265.996 97.606C266.042 97.6986 266.088 97.7834 266.127 97.8837C266.15 97.9454 266.173 97.9994 266.189 98.0611C266.22 98.146 266.25 98.2308 266.281 98.3157C266.304 98.3928 266.32 98.47 266.343 98.5471C266.358 98.6243 266.382 98.6937 266.397 98.7708C266.412 98.8634 266.428 98.956 266.436 99.0485C266.443 99.1103 266.459 99.172 266.466 99.2414C266.482 99.4034 266.49 99.5577 266.49 99.7197C266.49 99.8817 266.482 100.044 266.466 100.198L266.459 100.206ZM283.377 100.206C283.377 100.267 283.354 100.329 283.346 100.398C283.331 100.491 283.323 100.584 283.308 100.676C283.292 100.753 283.269 100.823 283.254 100.9C283.231 100.977 283.215 101.054 283.192 101.131C283.169 101.216 283.13 101.301 283.099 101.386C283.076 101.448 283.061 101.509 283.03 101.563C282.991 101.656 282.945 101.748 282.899 101.833C282.876 101.88 282.86 101.926 282.829 101.972C282.775 102.072 282.714 102.165 282.66 102.258C282.637 102.288 282.621 102.327 282.598 102.358C282.529 102.458 282.451 102.558 282.382 102.659C282.367 102.682 282.351 102.697 282.336 102.72C282.251 102.821 282.158 102.921 282.066 103.021C282.058 103.029 282.043 103.044 282.035 103.052C281.935 103.152 281.827 103.253 281.719 103.345C281.719 103.345 281.711 103.345 281.703 103.353C280.901 104.032 279.875 104.441 278.748 104.472C276.179 104.418 274.112 102.319 274.112 99.7274C274.112 97.1354 276.179 95.0449 278.748 94.9832C279.875 95.0064 280.901 95.4229 281.703 96.1018C281.819 96.1943 281.927 96.2946 282.027 96.4026C282.035 96.4103 282.043 96.4258 282.05 96.4335C282.143 96.5337 282.235 96.634 282.32 96.7343C282.336 96.7497 282.351 96.7729 282.367 96.7883C282.444 96.8886 282.521 96.9889 282.59 97.0892C282.613 97.12 282.629 97.1509 282.644 97.1817C282.706 97.2743 282.768 97.3746 282.822 97.4749C282.845 97.5211 282.868 97.5674 282.883 97.606C282.93 97.6986 282.976 97.7834 283.015 97.8837C283.038 97.9454 283.061 97.9994 283.076 98.0611C283.107 98.146 283.138 98.2308 283.169 98.3157C283.192 98.3928 283.207 98.47 283.231 98.5471C283.246 98.6243 283.269 98.6937 283.285 98.7708C283.3 98.8634 283.315 98.956 283.323 99.0485C283.331 99.1103 283.346 99.172 283.354 99.2414C283.37 99.4034 283.377 99.5577 283.377 99.7197C283.377 99.8817 283.37 100.044 283.354 100.198L283.377 100.206ZM295.79 94.9755C298.413 94.9755 300.535 97.0969 300.535 99.7197C300.535 102.342 298.413 104.464 295.79 104.464C293.167 104.464 291.046 102.342 291.046 99.7197C291.046 97.0969 293.167 94.9755 295.79 94.9755ZM312.709 104.464C310.086 104.464 307.964 102.342 307.964 99.7197C307.964 97.0969 310.086 94.9755 312.709 94.9755C315.332 94.9755 317.453 97.0969 317.453 99.7197C317.453 102.342 315.332 104.464 312.709 104.464ZM329.627 104.464C327.004 104.464 324.883 102.342 324.883 99.7197C324.883 97.0969 327.004 94.9755 329.627 94.9755C332.25 94.9755 334.372 97.0969 334.372 99.7197C334.372 102.342 332.25 104.464 329.627 104.464ZM346.546 104.464C343.923 104.464 341.801 102.342 341.801 99.7197C341.801 97.0969 343.923 94.9755 346.546 94.9755C349.169 94.9755 351.29 97.0969 351.29 99.7197C351.29 102.342 349.169 104.464 346.546 104.464Z" fill="url(#paint0_linear_4445_46)"/>
<defs>
<linearGradient id="paint0_linear_4445_46" x1="164" y1="32" x2="257.965" y2="562.506" gradientUnits="userSpaceOnUse">
<stop offset="0.31089" stop-color="white"/>
<stop offset="0.775524" stop-color="#E4E4E4"/>
</linearGradient>
</defs>
</svg>
