<svg xmlns="http://www.w3.org/2000/svg" xmlns:xlink="http://www.w3.org/1999/xlink" version="1.1" width="1000" height="1000" viewBox="0 0 1000 1000" xml:space="preserve">
<desc>Created with Fabric.js 3.5.0</desc>
<defs>
</defs>
<rect x="0" y="0" width="100%" height="100%" fill="rgba(255,255,255,0)"/>
<g transform="matrix(1.4784 0 0 1.4489 480.9315 516.8424)" id="769799">
<path style="stroke: none; stroke-width: 1; stroke-dasharray: none; stroke-linecap: butt; stroke-dashoffset: 0; stroke-linejoin: miter; stroke-miterlimit: 4; is-custom-font: none; font-file-url: none; fill: white; fill-rule: evenodd; opacity: 0.2;" vector-effect="non-scaling-stroke" transform=" translate(-253, -288.5)" d="M 693.625 218.546 C 366.641 306.56 366.536 309.119 696 253.491 C 366.145 314.238 365.832 316.797 695.556 289.192 C 365.049 321.864 364.526 324.371 692.163 325.468 C 363.352 329.36 362.647 331.841 685.69 362.11 C 361.055 336.725 360.168 339.127 676.059 398.934 C 358.21 343.88 357.114 346.205 663.192 435.655 C 354.817 350.749 353.564 352.995 646.932 472.009 C 350.876 357.357 349.467 359.498 627.226 507.632 C 346.465 363.651 344.873 365.662 604.023 542.054 C 341.532 369.579 339.81 371.46 577.426 574.857 C 336.182 375.064 334.302 376.814 547.672 605.622 C 330.387 380.13 328.378 381.724 515.047 633.985 C 324.228 384.727 322.114 386.137 479.916 659.684 C 317.729 388.827 315.484 390.081 442.54 682.353 C 310.943 392.431 308.594 393.502 403.207 701.601 C 303.869 395.487 301.468 396.375 362.282 717.114 C 296.587 397.968 294.108 398.647 320.234 728.632 C 289.123 399.849 286.617 400.345 277.482 735.97 C 281.554 401.154 279.022 401.442 234.547 739 C 273.906 401.86 271.349 401.938 191.951 737.694 C 266.207 401.938 263.649 401.86 150.191 732.157 C 258.533 401.442 255.975 401.154 109.762 722.52 C 250.912 400.345 248.406 399.822 71.0811 709.07 C 243.421 398.647 240.968 397.968 34.5407 692.068 C 236.087 396.349 233.686 395.461 0.427625 671.906 C 228.962 393.502 226.639 392.431 -31.0493 648.976 C 222.045 390.107 219.827 388.853 -59.7074 623.695 C 215.442 386.163 213.328 384.753 -85.4423 596.429 C 209.178 381.724 207.168 380.157 -108.202 567.518 C 203.279 376.814 201.374 375.09 -127.986 537.275 C 197.746 371.434 196.023 369.553 -144.82 506.039 C 192.682 365.662 191.09 363.651 -158.784 474.072 C 188.089 359.498 186.653 357.357 -169.981 441.635 C 183.991 352.969 182.738 350.723 -178.542 408.963 C 180.415 346.153 179.345 343.828 -184.623 376.239 C 177.388 339.101 176.5 336.698 -188.408 343.567 C 174.934 331.815 174.229 329.333 -190 311.052 C 173.029 324.345 172.533 321.838 -189.452 278.745 C 171.724 316.771 171.411 314.212 -186.816 246.7 C 171.019 309.119 170.915 306.534 -182.118 214.968 C 170.915 301.415 171.019 298.855 -175.384 183.602 C 171.411 293.736 171.698 291.177 -166.588 152.732 C 172.507 286.136 173.003 283.603 -155.73 122.463 C 174.229 278.615 174.908 276.134 -142.837 92.9773 C 176.5 271.276 177.388 268.873 -127.934 64.4057 C 179.345 264.12 180.415 261.796 -111.047 36.9831 C 182.738 257.199 183.991 254.979 -92.2545 10.8925 C 186.653 250.592 188.089 248.476 -71.6613 -13.7094 C 191.09 244.324 192.682 242.313 -49.3978 -36.6921 C 196.023 238.395 197.772 236.515 -25.6205 -57.9249 C 201.4 232.885 203.279 231.161 -0.511986 -77.3297 C 207.168 227.818 209.178 226.225 25.7971 -94.8017 C 213.301 223.221 215.442 221.785 53.1241 -110.289 C 219.8 219.095 222.045 217.841 81.3124 -123.765 C 226.613 215.517 228.936 214.446 110.205 -135.23 C 233.66 212.487 236.061 211.599 139.673 -144.632 C 240.942 210.006 243.421 209.301 169.584 -151.997 C 248.406 208.1 250.912 207.604 199.808 -157.325 C 255.975 206.82 258.533 206.507 230.214 -160.668 C 263.649 206.115 266.207 206.01 260.7 -162 C 271.322 206.01 273.88 206.115 291.159 -161.295 C 278.996 206.507 281.528 206.82 321.487 -158.553 C 286.591 207.63 289.097 208.126 351.581 -153.747 C 294.082 209.327 296.561 210.032 381.283 -146.878 C 301.442 211.626 303.843 212.513 410.489 -137.947 C 308.568 214.472 310.917 215.543 439.069 -126.978 C 315.484 217.867 317.703 219.121 466.892 -113.945 C 322.087 221.811 324.228 223.247 493.801 -98.8759 C 328.378 226.251 330.387 227.844 519.667 -81.8217 C 334.302 231.161 336.182 232.911 544.305 -62.8088 C 339.81 236.541 341.532 238.421 567.613 -41.8632 C 344.873 242.313 346.439 244.35 589.406 -19.0894 C 349.467 248.476 350.876 250.618 609.556 5.48639 C 353.564 255.005 354.817 257.225 627.931 31.7337 C 357.14 261.796 358.21 264.146 644.4 59.548 C 360.168 268.873 361.055 271.276 658.807 88.8509 C 362.647 276.134 363.326 278.615 671.048 119.512 C 364.526 283.603 365.022 286.11 681.018 151.427 C 365.832 291.177 366.119 293.736 688.588 184.464 C 366.536 298.855 366.641 301.415 693.625 218.52 V 218.546 Z" stroke-linecap="round"/>
</g>
</svg>