<svg id="Layer_1" data-name="Layer 1" xmlns="http://www.w3.org/2000/svg" xmlns:xlink="http://www.w3.org/1999/xlink" viewBox="0 0 637.96 167.32">
    <defs>
        <style>.cls-1,.cls-2,.cls-3{fill-rule:evenodd;}.cls-1{fill:url(#linear-gradient);}.cls-2{fill:url(#linear-gradient-2);}.cls-3{fill:url(#linear-gradient-3);}</style>
        <linearGradient id="linear-gradient" x1="34.75" y1="91.75" x2="116.92" y2="95.64" gradientTransform="translate(0 1)" gradientUnits="userSpaceOnUse">
            <stop offset="0" stop-color="#30e8bf"/><stop offset="1" stop-color="#ff8235"/>
        </linearGradient>
        <linearGradient id="linear-gradient-2" x1="-39.73" y1="76.42" x2="169.4" y2="87.02" xlink:href="#linear-gradient"/>
        <linearGradient id="linear-gradient-3" x1="92.6" y1="2845.33" x2="655.62" y2="2875.88" gradientTransform="matrix(1, 0, 0, -1, 0, 2946.84)" xlink:href="#linear-gradient"/>
    </defs>
    <path class="cls-1" d="M51.87,76.19l31.18,54.29,31.19-54.29A10.35,10.35,0,0,0,96.32,65.83L83.05,88.93,69.79,65.83A10.35,10.35,0,1,0,51.87,76.19Zm14-8,17.21,30,17.22-30a5.76,5.76,0,0,1,7.91-2.11A5.85,5.85,0,0,1,110.29,74L83.05,121.44,55.82,74a5.83,5.83,0,0,1,2.11-7.91A5.68,5.68,0,0,1,65.84,68.2Z"/><path class="cls-2" d="M166.42,83.66l-11.15,41.47-30.4,30.39L83.41,166.68,41.94,155.52,11.55,125.13.39,83.66,11.55,42.2,41.94,11.8,83.41.64,125,11.8l30.39,30.4ZM140.07,33.32,98.69,9.43l23.9,6.41Zm21.61,50.34-6.41,23.9V59.77ZM150.7,50v72.47L87.89,158.77Zm-4.57-7.91L83.41,5.83,20.59,42.11ZM16,50,78.84,158.77,16,122.49ZM98.6,157.8,140,133.91,122.5,151.39ZM26.74,133.91,68.12,157.8l-23.89-6.41ZM11.46,59.68v47.79L5.05,83.57ZM68.12,9.43,26.74,33.32,44.23,15.84Zm79.24,37.25-64,110.86-64-110.86Z"/><path class="cls-3" d="M279.83,42a5,5,0,0,1,1.81,6.78L235.36,129,189.08,48.76a5,5,0,1,1,8.58-5l37.7,65.31,37.69-65.31A5,5,0,0,1,279.83,42Zm177.35,5a5,5,0,0,1,5-5h65.32a5,5,0,1,1,0,10h-28v72.15a5,5,0,0,1-10,0V51.94H462.15A5,5,0,0,1,457.18,47ZM296.63,47a5,5,0,0,1,5-5h52.88a5,5,0,0,1,0,10H301.6A5,5,0,0,1,296.63,47Zm0,36.08a5,5,0,0,1,5-5h52.88a5,5,0,0,1,0,10H301.6A5,5,0,0,1,296.63,83Zm0,36.08a5,5,0,0,1,5-5h52.88a5,5,0,0,1,0,10H301.6A5,5,0,0,1,296.63,119.12ZM592.16,48.2a35.46,35.46,0,1,0,35.46,35.46A35.44,35.44,0,0,0,592.16,48.2ZM546.75,83.66a45.41,45.41,0,1,1,45.41,45.41A45.42,45.42,0,0,1,546.75,83.66ZM373.82,47a5,5,0,0,1,5-5h41.06a23,23,0,0,1,0,46H403.74l37.14,27.74a5,5,0,1,1-6,8L373.76,78.06h46.1a13.06,13.06,0,0,0,0-26.12H378.8A5,5,0,0,1,373.82,47Z"/>
</svg>