<svg id="Layer_1" data-name="Layer 1" xmlns="http://www.w3.org/2000/svg" xmlns:xlink="http://www.w3.org/1999/xlink" viewBox="0 0 190.55 189">
    <defs>
        <style>.cls-1,.cls-2{fill-rule:evenodd;}.cls-1{fill:url(#linear-gradient);}.cls-2{fill:url(#linear-gradient-2);}</style>
        <linearGradient id="linear-gradient" x1="39.91" y1="-1368.09" x2="133.45" y2="-1372.52" gradientTransform="matrix(1, 0, 0, -1, 0, -1263.18)" gradientUnits="userSpaceOnUse">
            <stop offset="0" stop-color="#30e8bf"/><stop offset="1" stop-color="#ff8235"/>
        </linearGradient>
        <linearGradient id="linear-gradient-2" x1="-44.87" y1="-1350.58" x2="193.19" y2="-1362.64" xlink:href="#linear-gradient"/>
    </defs>
    <path class="cls-1" d="M59.41,86.09,95,147.85,130.5,86.09a11.78,11.78,0,1,0-20.4-11.78L95,100.63,79.8,74.31A11.77,11.77,0,1,0,59.41,86.09Zm15.9-9.2L95,111l19.64-34.14A6.59,6.59,0,1,1,126,83.5l-31,54L63.9,83.5a6.59,6.59,0,1,1,11.41-6.61Z"/>
    <path class="cls-2" d="M189.78,94.5l-12.67,47.25-34.58,34.59L95.28,189,48,176.34,13.44,141.75.78,94.5,13.44,47.25,48,12.66,95.28,0l47.25,12.66,34.58,34.59Zm-30-57.27L112.63,10l27.21,7.29ZM184.41,94.5l-7.29,27.21V67.29ZM171.93,56.23v82.53L100.46,180Zm-5.19-9L95.28,6,23.81,47.25Zm-148.12,9L90.09,180,18.62,138.76Zm94,122.75,47.13-27.21-19.92,19.92ZM30.79,151.77,77.92,179l-27.21-7.29ZM13.44,67.29v54.42L6.15,94.5ZM77.92,10,30.79,37.23,50.71,17.31Zm90.21,42.42L95.28,178.63,22.42,52.44Z"/>
</svg>